<svg width="1920" height="1110" viewBox="0 0 1920 1110" fill="none" xmlns="http://www.w3.org/2000/svg">
<path d="M1920 874.146L1920 1065.47H1644.8V959.911L1372.8 959.911V1110H1097.6V1108.35L822.4 1108.35L822.4 1001.14H547.2V872.496L275.2 872.496L275.2 1073.71H0L0 0L275.2 0L547.2 0L822.4 0L1097.6 0L1372.8 0L1644.8 0L1920 0V874.146Z" fill="#F9FDEC"/>
<path d="M1920 687.243V770.064H1644.8V791.21L1372.8 791.21V775.351H1097.6V706.627H822.4V881.081H547.2V919.848L275.2 919.848V856.41H0V0L275.2 0L547.2 0L822.4 0L1097.6 0L1372.8 0L1644.8 0L1920 0V687.243Z" fill="#F2FBDA"/>
<path d="M1920 422.514V516.779H1644.8V525.196L1372.8 525.196V452.813L1097.6 452.813V494.896H822.4V572.329H547.2V382.114H275.2V441.03L0 441.03V0L275.2 0L547.2 0L822.4 0L1097.6 0L1372.8 0L1644.8 0L1920 0V422.514Z" fill="#EBF9C8"/>
<path d="M1920 187.255V169.631L1644.8 169.631V319.435H1372.8V475.848L1097.6 475.848V467.036H822.4V462.63L547.2 462.63V290.796H275.2V268.766L0 268.766V0L275.2 0L547.2 0L822.4 0L1097.6 0L1372.8 0L1644.8 0L1920 0V187.255Z" fill="#E4F7B5"/>
</svg>
